<svg xmlns="http://www.w3.org/2000/svg" xmlns:xlink="http://www.w3.org/1999/xlink" viewBox="0,0,256,256" width="50px" height="50px" fill-rule="nonzero"><g transform="translate(64,64) scale(0.5,0.5)"><g fill="#b2eaff" fill-rule="nonzero" stroke="none" stroke-width="1" stroke-linecap="butt" stroke-linejoin="miter" stroke-miterlimit="10" stroke-dasharray="" stroke-dashoffset="0" font-family="none" font-weight="none" font-size="none" text-anchor="none" style="mix-blend-mode: normal"><path d="M-128,384v-512h512v512z" id="bgRectangle"></path></g><g fill="#003588" fill-rule="nonzero" stroke="none" stroke-width="1" stroke-linecap="butt" stroke-linejoin="miter" stroke-miterlimit="10" stroke-dasharray="" stroke-dashoffset="0" font-family="none" font-weight="none" font-size="none" text-anchor="none" style="mix-blend-mode: normal"><g transform="scale(5.12,5.12)"><path d="M25,2c-9.87109,0 -18,7.30078 -18,18.46875c0,7.86328 1.33203,14.30469 5.15625,18.53125c-1.71484,2.28906 -3.03125,4.53125 -3.03125,4.53125c-0.12891,0.23828 -0.15625,0.51953 -0.07422,0.78125c0.08203,0.25781 0.26563,0.47266 0.51172,0.59375c0,0 6.375,3.09375 15.4375,3.09375c9.0625,0 15.4375,-3.09375 15.4375,-3.09375c0.24609,-0.12109 0.42969,-0.33594 0.51172,-0.59375c0.08203,-0.26172 0.05469,-0.54297 -0.07422,-0.78125c0,0 -1.31641,-2.24219 -3.03125,-4.53125c3.82422,-4.22656 5.15625,-10.66797 5.15625,-18.53125c0,-11.16797 -8.12891,-18.46875 -18,-18.46875zM25,4c8.90625,0 16,6.25 16,16.46875c0,8.02734 -1.40625,14.23438 -5.0625,17.8125c-0.36328,0.36328 -0.39062,0.94531 -0.0625,1.34375c1.65234,2.04297 2.22656,3.20703 2.59375,3.875c-1.33984,0.58594 -6.01953,2.5 -13.46875,2.5c-7.44922,0 -12.12891,-1.91406 -13.46875,-2.5c0.36719,-0.66797 0.94141,-1.83203 2.59375,-3.875c0.32813,-0.39844 0.30078,-0.98047 -0.0625,-1.34375c-3.65625,-3.58203 -5.0625,-9.78516 -5.0625,-17.8125c0,-10.21875 7.09375,-16.46875 16,-16.46875zM17,20c-1.30859,0 -2.51953,0.40625 -3.4375,1.09375c-0.91797,0.6875 -1.5625,1.71875 -1.5625,2.90625c0,1.1875 0.64453,2.21875 1.5625,2.90625c0.91797,0.6875 2.12891,1.09375 3.4375,1.09375c3.72266,0 6.71875,-3.3125 6.71875,-3.3125c0.36328,-0.38672 0.36328,-0.98828 0,-1.375c0,0 -2.96484,-3.3125 -6.71875,-3.3125zM33,20c-3.75391,0 -6.71875,3.3125 -6.71875,3.3125c-0.36328,0.38672 -0.36328,0.98828 0,1.375c0,0 2.99609,3.3125 6.71875,3.3125c1.30859,0 2.51953,-0.40625 3.4375,-1.09375c0.91797,-0.6875 1.5625,-1.71875 1.5625,-2.90625c0,-1.1875 -0.64453,-2.21875 -1.5625,-2.90625c-0.91797,-0.6875 -2.12891,-1.09375 -3.4375,-1.09375zM17,22c1.83984,0 3.49219,1.23828 4.40625,2c-0.92969,0.76563 -2.60547,2 -4.40625,2c-0.90234,0 -1.69141,-0.29297 -2.21875,-0.6875c-0.52734,-0.39453 -0.78125,-0.84375 -0.78125,-1.3125c0,-0.46875 0.25391,-0.91797 0.78125,-1.3125c0.52734,-0.39453 1.31641,-0.6875 2.21875,-0.6875zM33,22c0.90234,0 1.69141,0.29297 2.21875,0.6875c0.52734,0.39453 0.78125,0.84375 0.78125,1.3125c0,0.46875 -0.25391,0.91797 -0.78125,1.3125c-0.52734,0.39453 -1.31641,0.6875 -2.21875,0.6875c-1.80078,0 -3.47656,-1.23437 -4.40625,-2c0.91406,-0.76172 2.56641,-2 4.40625,-2zM25,28c-1.59375,0 -2.85547,1.10938 -3.6875,2.4375c-0.83203,1.32813 -1.3125,2.96484 -1.3125,4.5625c0,3.19531 2.11719,6 5,6c2.88281,0 5,-2.80469 5,-6c0,-1.59766 -0.48047,-3.23437 -1.3125,-4.5625c-0.83203,-1.32812 -2.09375,-2.4375 -3.6875,-2.4375zM25,30c0.61719,0 1.35156,0.51953 1.96875,1.5c0.61719,0.98047 1.03125,2.33594 1.03125,3.5c0,2.32813 -1.46484,4 -3,4c-1.53516,0 -3,-1.67187 -3,-4c0,-1.16406 0.41406,-2.51953 1.03125,-3.5c0.61719,-0.98047 1.35156,-1.5 1.96875,-1.5z"></path></g></g></g></svg>