<svg xmlns="http://www.w3.org/2000/svg" xmlns:xlink="http://www.w3.org/1999/xlink" viewBox="0,0,256,256" width="50px" height="50px" fill-rule="nonzero"><g transform="translate(64,64) scale(0.5,0.5)"><g fill="#b2eaff" fill-rule="nonzero" stroke="none" stroke-width="1" stroke-linecap="butt" stroke-linejoin="miter" stroke-miterlimit="10" stroke-dasharray="" stroke-dashoffset="0" font-family="none" font-weight="none" font-size="none" text-anchor="none" style="mix-blend-mode: normal"><path d="M-128,384v-512h512v512z" id="bgRectangle"></path></g><g fill="#003588" fill-rule="nonzero" stroke="none" stroke-width="1" stroke-linecap="butt" stroke-linejoin="miter" stroke-miterlimit="10" stroke-dasharray="" stroke-dashoffset="0" font-family="none" font-weight="none" font-size="none" text-anchor="none" style="mix-blend-mode: normal"><g transform="scale(5.12,5.12)"><path d="M17.41797,6c-4.164,0.086 -6.78564,1.55247 -8.05664,4.48047c-1.154,2.658 -0.75853,6.11609 -0.14453,8.74609c-0.455,0.614 -0.65569,1.42973 -0.55469,2.30273c0.129,1.085 0.42214,1.92686 0.86914,2.50586c0.25,0.323 0.51644,0.5415 0.77344,0.6875c0.163,0.784 0.45041,1.62528 0.81641,2.36328c0.148,0.299 0.55495,0.96833 0.87695,1.48633v2.78906c-0.615,0.822 -1.4032,1.69572 -1.7832,1.88672c-0.691,0.348 -1.46802,0.6507 -2.29102,0.9707c-0.554,0.216 -1.12722,0.4405 -1.69922,0.6875c-1.859,0.805 -3.19503,1.66136 -4.20703,2.69336c-1.001,1.019 -1.64947,2.33167 -1.98047,4.01367c-0.116,0.587 0.03602,1.19425 0.41602,1.65625c0.381,0.462 0.94887,0.73047 1.54688,0.73047h18.55859c-0.356,-0.611 -0.54983,-1.295 -0.54883,-2h-18.00977c0.246,-1.246 0.70531,-2.24795 1.44531,-3.00195c0.931,-0.95 2.20117,-1.66086 3.57617,-2.25586c1.375,-0.595 2.8198,-1.06703 4.0918,-1.70703c1.273,-0.64 2.88672,-3.03516 2.88672,-3.03516v-4c0,0 -0.90494,-1.43873 -1.08594,-1.80273c-0.362,-0.73 -0.65733,-1.66787 -0.73633,-2.42187l-0.17578,-0.78711l-0.64258,0.01563h-0.00391c-0.019,0 -0.09919,-0.00936 -0.24219,-0.19336c-0.157,-0.203 -0.36089,-0.64967 -0.46289,-1.51367c-0.082,-0.702 0.25305,-0.96484 0.24805,-0.96484l0.57031,-0.35742l-0.16406,-0.63281c-0.822,-3.193 -0.96537,-6.09541 -0.10938,-8.06641c0.853,-1.965 2.59266,-3.19939 6.22266,-3.27539h0.02539c1.757,0.007 2.8967,0.52656 3.2207,1.10156l0.21875,0.35742l0.4082,0.05469c1.214,0.169 1.90939,0.66461 2.40039,1.34961c0.491,0.685 0.7637,1.64027 0.8457,2.69727c0.164,2.113 -0.43936,4.57356 -0.81836,5.72656l-0.2168,0.6875l0.59766,0.35547c-0.004,0 0.33305,0.2648 0.24805,0.9668c-0.102,0.864 -0.30784,1.31067 -0.46484,1.51367c-0.142,0.184 -0.22319,0.19336 -0.24219,0.19336h-0.00391l-0.65234,0.01953l-0.16602,0.75c-0.082,0.76 -0.38628,1.69383 -0.73828,2.42383c-0.174,0.365 -1.08008,1.80273 -1.08008,1.80273v4c0,0 1.64311,2.39516 2.91211,3.03516c0.162,0.082 0.33395,0.15447 0.50195,0.23047c0.571,-0.338 1.19039,-0.66084 1.90039,-0.96484c0.164,-0.07 0.33009,-0.13222 0.49609,-0.19922c-0.713,-0.279 -1.39309,-0.54951 -1.99609,-0.85352c-0.383,-0.193 -1.18545,-1.07144 -1.81445,-1.89844v-2.77734c0.324,-0.522 0.73481,-1.19695 0.88281,-1.50195c0.361,-0.75 0.64464,-1.58266 0.80664,-2.34766c0.258,-0.146 0.5283,-0.36445 0.7793,-0.68945c0.447,-0.579 0.73919,-1.42095 0.86719,-2.50195c0.103,-0.852 -0.08453,-1.65072 -0.51953,-2.26172c0.329,-1.164 0.8948,-3.57128 0.7168,-5.86328c-0.114,-1.478 -0.53289,-2.76098 -1.21289,-3.70898c-0.792,-1.104 -1.86458,-1.78708 -3.26758,-2.08008c-0.889,-1.027 -2.52261,-1.60919 -4.59961,-1.61719h-0.00781zM35.96484,13.99805c-0.001,0.001 -0.00581,0.00195 -0.00781,0.00195h-0.01953c-3.423,0.07 -5.58544,1.28017 -6.64844,3.70117c-0.758,1.725 -0.8205,4.00511 -0.1875,6.78711c-0.312,0.506 -0.45534,1.12716 -0.40234,1.78516c0.029,1.576 0.71234,2.57663 1.52734,3.14062c0.21,0.757 0.52644,1.50802 0.77344,2.04102v1.42969c0,0.719 -0.24678,1.3898 -0.67578,1.8418c-0.121,0.127 -0.18455,0.16892 -0.18555,0.16992c-0.489,0.242 -1.08003,0.46994 -1.70703,0.71094c-0.445,0.171 -0.89303,0.3452 -1.33203,0.5332c-1.494,0.639 -2.57439,1.32425 -3.40039,2.15625c-0.83,0.835 -1.39011,1.94855 -1.66211,3.31055c-0.117,0.588 0.03602,1.19716 0.41602,1.66016c0.38,0.463 0.94787,0.73242 1.54688,0.73242h24c0.599,0 1.16687,-0.26747 1.54688,-0.73047c0.38,-0.463 0.53106,-1.07316 0.41406,-1.66016c-0.27,-1.357 -0.82916,-2.47055 -1.66016,-3.31055c-0.827,-0.836 -1.89995,-1.52125 -3.37695,-2.15625c-0.443,-0.191 -0.89761,-0.36702 -1.34961,-0.54102c-0.62,-0.239 -1.20589,-0.46284 -1.71289,-0.71484c0.004,0 -0.06178,-0.04897 -0.17578,-0.16797c-0.435,-0.456 -0.68555,-1.13247 -0.68555,-1.85547v-1.4082c0.247,-0.533 0.56344,-1.28402 0.77344,-2.04102c0.815,-0.563 1.49734,-1.56372 1.52734,-3.13672c0.053,-0.64 -0.07714,-1.24323 -0.36914,-1.74023c0.266,-0.981 0.64472,-2.74541 0.51172,-4.44141c-0.096,-1.22 -0.45225,-2.28503 -1.03125,-3.08203c-0.647,-0.89 -1.53916,-1.47428 -2.66016,-1.73828c-0.793,-0.813 -2.12811,-1.27134 -3.78711,-1.27734zM35.93555,16h0.02148c1.36,0.005 2.24314,0.4028 2.49414,0.8418l0.16797,0.27344l0.31836,0.04297c0.94,0.129 1.47937,0.50725 1.85938,1.03125c0.38,0.524 0.5913,1.25645 0.6543,2.06445c0.127,1.616 -0.34177,3.49691 -0.63477,4.37891l-0.16797,0.52539l0.46289,0.27344c-0.003,0 0.25741,0.20128 0.19141,0.73828c0,1.831 -1.30273,1.83008 -1.30273,1.83008c0,1 -1,3 -1,3v1.86328c0,1.195 0.41423,2.37233 1.24023,3.23633c0.231,0.242 0.47761,0.45122 0.72461,0.57422c0.982,0.49 2.11092,0.84969 3.16992,1.30469c1.059,0.455 2.02709,0.99861 2.74609,1.72461c0.57,0.576 0.93109,1.33892 1.12109,2.29492h-24.00195c0.19,-0.953 0.54614,-1.71792 1.11914,-2.29492c0.721,-0.726 1.70453,-1.26961 2.76953,-1.72461c1.064,-0.455 2.18297,-0.81569 3.16797,-1.30469c0.246,-0.122 0.49075,-0.33031 0.71875,-0.57031c0.817,-0.86 1.22461,-2.0308 1.22461,-3.2168v-1.88672c0,0 -1,-2 -1,-3c0,0 -1.30273,-0.00003 -1.30273,-1.83203c-0.06275,-0.5349 0.19335,-0.73671 0.19141,-0.73828l0.44141,-0.27344l-0.12695,-0.48242c-0.636,-2.442 -0.74794,-4.66097 -0.08594,-6.16797c0.66,-1.503 2.00836,-2.44786 4.81836,-2.50586z"></path></g></g></g></svg>