<svg xmlns="http://www.w3.org/2000/svg" xmlns:xlink="http://www.w3.org/1999/xlink" viewBox="0,0,256,256" width="50px" height="50px" fill-rule="nonzero"><g transform="translate(64,64) scale(0.5,0.5)"><g fill="#b2eaff" fill-rule="nonzero" stroke="none" stroke-width="1" stroke-linecap="butt" stroke-linejoin="miter" stroke-miterlimit="10" stroke-dasharray="" stroke-dashoffset="0" font-family="none" font-weight="none" font-size="none" text-anchor="none" style="mix-blend-mode: normal"><path d="M-128,384v-512h512v512z" id="bgRectangle"></path></g><g fill="#003588" fill-rule="nonzero" stroke="none" stroke-width="1" stroke-linecap="butt" stroke-linejoin="miter" stroke-miterlimit="10" stroke-dasharray="" stroke-dashoffset="0" font-family="none" font-weight="none" font-size="none" text-anchor="none" style="mix-blend-mode: normal"><g transform="scale(5.12,5.12)"><path d="M25,0.09375c0,0 -4.39062,4.11719 -5.375,15.125l-12.03125,-12.03125c-0.1875,-0.19922 -0.44531,-0.30859 -0.71875,-0.3125c-0.40625,0.00391 -0.76953,0.25 -0.92187,0.62891c-0.14844,0.375 -0.05859,0.80859 0.23438,1.08984l40,40c0.24219,0.29688 0.62891,0.43359 1.00391,0.34766c0.37109,-0.08594 0.66406,-0.37891 0.75,-0.75c0.08594,-0.375 -0.05078,-0.76172 -0.34766,-1.00391l-6.5625,-6.5625c6.83984,-3.16797 8.96875,-8.125 8.96875,-8.125c0,0 -4.38672,-1.58594 -10.6875,-0.6875c6.39844,-9.5 6.6875,-19.125 6.6875,-19.125c0,0 -8.69922,2.82031 -15.5,11.71875v-0.71875c0.10156,-14.10156 -5.5,-19.59375 -5.5,-19.59375zM25,3.40625c0,0 3.59375,6.50781 3.59375,16.40625c0,1.44141 -0.09375,2.80859 -0.21875,4.15625l-6.8125,-6.8125c0.49609,-8.3125 3.4375,-13.75 3.4375,-13.75zM4,8.6875c0,0 0.00781,9.32422 6.90625,19.125c-6.5,-2 -10.90625,0.09375 -10.90625,0.09375c0,0 2.70703,6.69531 11.40625,9.59375c-2.39844,1.39844 -3.80469,2.89844 -3.90625,3l-2.1875,2.40625l3.09375,0.90625c0.10156,0 2.19922,0.59375 5,0.59375c1.69922,0 3.28125,-0.19531 4.78125,-0.59375c2.42188,-0.64453 4.44531,-1.81641 5.875,-2.875c0.30469,5.05469 2.0625,8.53125 2.0625,8.53125c0.14063,0.35938 0.47266,0.60938 0.85938,0.63672c0.38672,0.02734 0.75391,-0.16797 0.94531,-0.50391c0.1875,-0.33984 0.16797,-0.75391 -0.05469,-1.07031c0,0 -1.51562,-3 -1.8125,-7.53125c1.44922,1.03906 3.375,2.17969 5.75,2.8125c1.5,0.39844 3.08203,0.59375 4.78125,0.59375c2.80078,0 4.89844,-0.59375 5,-0.59375l0.71875,-0.21875l-1.625,-1.59375c-0.60156,0.19922 -2.19531,0.5 -4.09375,0.5c-1.30078,0 -2.6875,-0.10156 -4.1875,-0.5c-4,-1.10156 -6.8125,-3.71094 -7.3125,-4.3125c-0.5,0.60156 -3.38281,3.21094 -7.28125,4.3125c-1.5,0.39844 -2.91797,0.5 -4.21875,0.5c-2.60156,0 -4.40625,-0.5 -4.40625,-0.5c0,0 3.00781,-3.20703 7.40625,-4.40625c0.5,-0.10156 1.09375,-0.28125 1.59375,-0.28125c-1.69922,-0.30078 -3.60156,-0.70703 -5.5,-1.40625c-6.30078,-2.30078 -9.09375,-6.59375 -9.09375,-6.59375c0,0 4.70703,-1.00781 10.90625,1.59375c1.10156,0.39844 2.10156,0.78125 3,1.28125c-1.5,-1.39844 -3.09375,-3.09375 -4.59375,-5.09375c-5.10156,-7 -6.3125,-14.78125 -6.3125,-14.78125c0,0 7.11719,3.49219 12.21875,10.59375c1.60156,2.30078 2.88281,4.58594 3.78125,6.6875c-0.39844,-2 -0.80078,-4.19531 -1,-6.59375l-9.90625,-9.90625c-4.10156,-2.89844 -7.6875,-4.40625 -7.6875,-4.40625zM43.90625,11.8125c0,0 -1.49219,8.28125 -6.59375,15.28125c-0.81641,1.19141 -1.77344,2.18359 -2.6875,3.125l-4.875,-4.875c0.51563,-0.84375 1.05078,-1.66016 1.65625,-2.53125c5.10156,-7 12.5,-11 12.5,-11zM45.90625,29.5625c0.74609,0.00391 1.1875,0.03125 1.1875,0.03125c0,0 -2.55469,3.14453 -7.65625,5.4375l-4.0625,-4.0625c0.14453,-0.05078 0.29297,-0.10937 0.4375,-0.15625c3,-1.125 7.85156,-1.26562 10.09375,-1.25zM35.1875,36.5c-1.10156,0.30078 -2.1875,0.48828 -3.1875,0.6875c0.5,0.10156 0.99219,0.21094 1.59375,0.3125c2,0.60156 3.69922,1.50781 5,2.40625z"></path></g></g></g></svg>