<svg xmlns="http://www.w3.org/2000/svg" xmlns:xlink="http://www.w3.org/1999/xlink" viewBox="0,0,256,256" width="50px" height="50px" fill-rule="nonzero"><g transform="translate(38.4,38.4) scale(0.7,0.7)"><g fill="#266afb" fill-rule="nonzero" stroke="none" stroke-width="1" stroke-linecap="butt" stroke-linejoin="miter" stroke-miterlimit="10" stroke-dasharray="" stroke-dashoffset="0" font-family="none" font-weight="none" font-size="none" text-anchor="none" style="mix-blend-mode: normal"><path d="M-54.85714,310.85714v-365.71429h365.71429v365.71429z" id="bgRectangle"></path></g><g fill="#ffffff" fill-rule="nonzero" stroke="none" stroke-width="1" stroke-linecap="butt" stroke-linejoin="miter" stroke-miterlimit="10" stroke-dasharray="" stroke-dashoffset="0" font-family="none" font-weight="none" font-size="none" text-anchor="none" style="mix-blend-mode: normal"><g transform="scale(5.12,5.12)"><path d="M25,2c-12.6907,0 -23,10.3093 -23,23c0,12.69071 10.3093,23 23,23c12.69071,0 23,-10.30929 23,-23c0,-12.6907 -10.30929,-23 -23,-23zM25,4c11.60982,0 21,9.39018 21,21c0,11.60982 -9.39018,21 -21,21c-11.60982,0 -21,-9.39018 -21,-21c0,-11.60982 9.39018,-21 21,-21zM25,11c-3.32381,0 -6,2.67619 -6,6v3h-1c-1.64545,0 -3,1.35455 -3,3v10c0,1.64545 1.35455,3 3,3h14c1.64545,0 3,-1.35455 3,-3v-10c0,-1.64545 -1.35455,-3 -3,-3h-1v-3c0,-3.32381 -2.67619,-6 -6,-6zM25,13c2.27619,0 4,1.72381 4,4v3h-8v-3c0,-2.27619 1.72381,-4 4,-4zM18,22h1.83203c0.10799,0.01785 0.21818,0.01785 0.32617,0h9.67383c0.10799,0.01785 0.21818,0.01785 0.32617,0h1.8418c0.55454,0 1,0.44545 1,1v10c0,0.55454 -0.44546,1 -1,1h-14c-0.55455,0 -1,-0.44546 -1,-1v-10c0,-0.55455 0.44545,-1 1,-1zM25,25c-1.10457,0 -2,0.89543 -2,2c0.00056,0.71397 0.38169,1.37349 1,1.73047v1.26953c0,0.6 0.4,1 1,1c0.6,0 1,-0.4 1,-1v-1.27148c0.61771,-0.35663 0.99874,-1.01525 1,-1.72852c0,-1.10457 -0.89543,-2 -2,-2z"></path></g></g></g></svg>