<svg xmlns="http://www.w3.org/2000/svg" xmlns:xlink="http://www.w3.org/1999/xlink" viewBox="0,0,256,256" width="50px" height="50px" fill-rule="nonzero"><g transform="translate(64,64) scale(0.5,0.5)"><g fill="#b2eaff" fill-rule="nonzero" stroke="none" stroke-width="1" stroke-linecap="butt" stroke-linejoin="miter" stroke-miterlimit="10" stroke-dasharray="" stroke-dashoffset="0" font-family="none" font-weight="none" font-size="none" text-anchor="none" style="mix-blend-mode: normal"><path d="M-128,384v-512h512v512z" id="bgRectangle"></path></g><g fill="#003588" fill-rule="nonzero" stroke="none" stroke-width="1" stroke-linecap="butt" stroke-linejoin="miter" stroke-miterlimit="10" stroke-dasharray="" stroke-dashoffset="0" font-family="none" font-weight="none" font-size="none" text-anchor="none" style="mix-blend-mode: normal"><g transform="scale(5.12,5.12)"><path d="M12.5,2c-1.53516,0 -2.20703,1.30078 -2.26562,1.42578l-6.09375,8.98047v0.00391c-0.75391,1.0625 -1.14062,2.30469 -1.14062,3.58984v6.5c0,3.02734 2.47266,5.5 5.5,5.5h11.5c1.64453,0 3,-1.35547 3,-3v-0.61719c0.40625,-0.39844 1,-1.10937 1,-2.38281c0,-0.86328 -0.33594,-1.52344 -0.67578,-2c0.33984,-0.47656 0.67578,-1.13672 0.67578,-2c0,-1.27344 -0.59375,-1.98437 -1,-2.38281v-0.61719c0,-1.64453 -1.35547,-3 -3,-3h-6.5c-0.53125,0 -0.45312,-0.05859 -0.45703,-0.06641c-0.00391,-0.01172 -0.04687,-0.33203 0.14453,-0.82812c1.38281,-3.65625 1.8125,-5.25781 1.8125,-6.60547c0,-1.33203 -1.11328,-2.5 -2.5,-2.5zM12.5,4c0.36328,0 0.5,0.17578 0.5,0.5c0,0.90234 -0.32031,2.29688 -1.6875,5.89453c-0.28516,0.76172 -0.45312,1.56641 -0.08984,2.36719c0.36719,0.80078 1.30859,1.23828 2.27734,1.23828h6.5c0.56641,0 1,0.43359 1,1v1c0,0.31641 0.14844,0.61328 0.40234,0.80078c0,0 0.59766,0.48438 0.59766,1.19922c0,0.70313 -0.56641,1.15625 -0.58984,1.17578c-0.28516,0.20313 -0.44531,0.53906 -0.42187,0.88672v0.00391c0.01953,0.30469 0.17578,0.58203 0.42188,0.75781c0.00391,0 0.00391,0 0.00391,0.00391c0.02344,0.01953 0.58594,0.46875 0.58594,1.17188c0,0.71484 -0.59766,1.19922 -0.59766,1.19922c-0.25391,0.1875 -0.40234,0.48438 -0.40234,0.80078v1c0,0.56641 -0.43359,1 -1,1h-11.5c-1.94531,0 -3.5,-1.55469 -3.5,-3.5v-6.5c0,-0.89453 0.25,-1.69922 0.77344,-2.43359c0.00391,-0.00391 0.00781,-0.01172 0.00781,-0.01953l6.12891,-9.02344c0.01563,-0.02344 0.03125,-0.04687 0.04297,-0.07031c0,0 0.40625,-0.45312 0.54688,-0.45312zM30,22c-1.64453,0 -3,1.35547 -3,3v0.61719c-0.40625,0.39844 -1,1.10938 -1,2.38281c0,0.86328 0.33594,1.52344 0.67578,2c-0.33984,0.47656 -0.67578,1.13672 -0.67578,2c0,1.27344 0.59375,1.98438 1,2.38281v0.61719c0,1.64453 1.35547,3 3,3h6.5c0.53125,0 0.45313,0.05859 0.45703,0.06641c0.00391,0.01172 0.04688,0.33203 -0.14453,0.82813c-1.38281,3.65625 -1.8125,5.25781 -1.8125,6.60547c0,1.33203 1.11328,2.5 2.5,2.5c1.53516,0 2.20703,-1.30078 2.26563,-1.42578l6.09375,-8.98047v-0.00391c0.75391,-1.0625 1.14063,-2.30469 1.14063,-3.58984v-6.5c0,-3.02734 -2.47266,-5.5 -5.5,-5.5zM30,24h11.5c1.94531,0 3.5,1.55469 3.5,3.5v6.5c0,0.89453 -0.25,1.69922 -0.76953,2.43359c-0.00781,0.00391 -0.01172,0.01172 -0.01172,0.01953l-6.12891,9.02344c-0.01562,0.02344 -0.03125,0.04688 -0.04297,0.07031c0,0 -0.40625,0.45313 -0.54687,0.45313c-0.36328,0 -0.5,-0.17578 -0.5,-0.5c0,-0.90234 0.32031,-2.29687 1.6875,-5.89453c0.28516,-0.76172 0.45313,-1.56641 0.08984,-2.36719c-0.36719,-0.80078 -1.30859,-1.23828 -2.27734,-1.23828h-6.5c-0.56641,0 -1,-0.43359 -1,-1v-1c0,-0.31641 -0.14844,-0.61328 -0.40234,-0.80078c0,0 -0.59766,-0.48437 -0.59766,-1.19922c0,-0.70312 0.56641,-1.15625 0.58984,-1.17578c0.28516,-0.20312 0.44531,-0.53906 0.42188,-0.88672v-0.00391c-0.01953,-0.30469 -0.17578,-0.58203 -0.42187,-0.75781c-0.00391,0 -0.00391,0 -0.00391,-0.00391c-0.02344,-0.01953 -0.58594,-0.46875 -0.58594,-1.17187c0,-0.71484 0.59766,-1.19922 0.59766,-1.19922c0.25391,-0.1875 0.40234,-0.48437 0.40234,-0.80078v-1c0,-0.56641 0.43359,-1 1,-1z"></path></g></g></g></svg>