<svg xmlns="http://www.w3.org/2000/svg" xmlns:xlink="http://www.w3.org/1999/xlink" viewBox="0,0,256,256" width="50px" height="50px" fill-rule="nonzero"><g transform="translate(64,64) scale(0.5,0.5)"><g fill="#b2eaff" fill-rule="nonzero" stroke="none" stroke-width="1" stroke-linecap="butt" stroke-linejoin="miter" stroke-miterlimit="10" stroke-dasharray="" stroke-dashoffset="0" font-family="none" font-weight="none" font-size="none" text-anchor="none" style="mix-blend-mode: normal"><path d="M-128,384v-512h512v512z" id="bgRectangle"></path></g><g fill="#003588" fill-rule="nonzero" stroke="none" stroke-width="1" stroke-linecap="butt" stroke-linejoin="miter" stroke-miterlimit="10" stroke-dasharray="" stroke-dashoffset="0" font-family="none" font-weight="none" font-size="none" text-anchor="none" style="mix-blend-mode: normal"><g transform="scale(5.12,5.12)"><path d="M19.94922,0.39063c-3.68,0.067 -6.37291,1.1918 -8.00391,3.3418c-1.934,2.549 -2.29427,6.41133 -1.07226,11.48633c-0.451,0.551 -0.78244,1.40167 -0.64844,2.51367c0.264,2.195 1.1388,3.09013 1.8418,3.45313c0.341,1.734 1.28798,3.68942 2.20899,4.60742l0.00195,0.46484c0.009,1.016 0.01592,1.89911 -0.08008,3.03711c-0.612,1.405 -2.64905,2.20686 -4.99805,3.13086c-3.908,1.536 -8.76977,3.44863 -9.13477,9.51563l-0.06445,1.05859h26.28125c-1.047,-1 -1.4375,-2 -1.4375,-2h-22.6543c0.756,-3.968 4.30419,-5.36284 7.74219,-6.71484c2.739,-1.077 5.32455,-2.0942 6.18555,-4.4082l0.06055,-0.25977c0.118,-1.307 0.10861,-2.31095 0.09961,-3.37695l-0.00586,-0.92187l0.01758,-0.5957l-0.53516,-0.28125c-0.438,-0.297 -1.60683,-2.31419 -1.79883,-4.11719l-0.08789,-0.82227l-0.82422,-0.06836c-0.128,-0.01 -0.64303,-0.36945 -0.83203,-1.93945c-0.097,-0.806 0.29487,-1.0908 0.29687,-1.0918l0.63477,-0.38672l-0.1875,-0.71875c-1.213,-4.672 -1.01102,-8.25447 0.58398,-10.35547c1.243,-1.638 3.41364,-2.49478 6.43164,-2.55078c1.877,0 3.26394,0.46891 3.71094,1.25391l0.24414,0.42773l0.48828,0.06641c1.336,0.186 2.28348,0.75714 2.89648,1.74414c1.536,2.473 0.64786,7.03866 -0.11914,9.34766l-0.21094,0.74609l0.63867,0.42383c0.004,0.003 0.39583,0.2848 0.29883,1.0918c-0.189,1.57 -0.70403,1.93241 -0.83203,1.94141l-0.82617,0.06641l-0.08789,0.82227c-0.194,1.814 -1.32752,3.82938 -1.72852,4.10938l-0.53711,0.28125l-0.00391,1.5332c-0.009,1.062 -0.01839,2.06614 0.09961,3.36914l0.05859,0.25977c0.247,0.664 0.63384,1.20997 1.08984,1.66797c0.291,-0.508 0.83258,-1.41661 1.14258,-1.72461c-0.13,-0.17 -0.2335,-0.34339 -0.3125,-0.52539c-0.096,-1.134 -0.08908,-2.01434 -0.08008,-3.02734l0.00195,-0.48047c0.898,-0.917 1.8212,-2.86556 2.1582,-4.60156c0.703,-0.364 1.5788,-1.25913 1.8418,-3.45312c0.131,-1.091 -0.187,-1.93047 -0.625,-2.48047c0.58,-1.979 1.78047,-7.12383 -0.26953,-10.42383c-0.859,-1.384 -2.16105,-2.2538 -3.87305,-2.5918c-0.944,-1.193 -2.75555,-1.84375 -5.18555,-1.84375zM36,26c-5.51133,0 -10,4.48867 -10,10c0,5.51133 4.48867,10 10,10c2.39665,0 4.59741,-0.85106 6.32227,-2.26367l5.9707,5.9707l1.41406,-1.41406l-5.9707,-5.9707c1.41261,-1.72486 2.26367,-3.92561 2.26367,-6.32227c0,-5.51133 -4.48867,-10 -10,-10zM36,28c1.8533,0 3.55059,0.63081 4.9043,1.68164l-11.22266,11.22266c-1.05083,-1.3537 -1.68164,-3.051 -1.68164,-4.9043c0,-4.43067 3.56933,-8 8,-8zM42.31836,31.0957c1.05083,1.3537 1.68164,3.051 1.68164,4.9043c0,4.43067 -3.56933,8 -8,8c-1.8533,0 -3.55059,-0.63081 -4.9043,-1.68164z"></path></g></g></g></svg>