<svg xmlns="http://www.w3.org/2000/svg" xmlns:xlink="http://www.w3.org/1999/xlink" viewBox="0,0,256,256" width="50px" height="50px" fill-rule="nonzero"><g transform="translate(64,64) scale(0.5,0.5)"><g fill="#b2eaff" fill-rule="nonzero" stroke="none" stroke-width="1" stroke-linecap="butt" stroke-linejoin="miter" stroke-miterlimit="10" stroke-dasharray="" stroke-dashoffset="0" font-family="none" font-weight="none" font-size="none" text-anchor="none" style="mix-blend-mode: normal"><path d="M-128,384v-512h512v512z" id="bgRectangle"></path></g><g fill="#003588" fill-rule="nonzero" stroke="none" stroke-width="1" stroke-linecap="butt" stroke-linejoin="miter" stroke-miterlimit="10" stroke-dasharray="" stroke-dashoffset="0" font-family="none" font-weight="none" font-size="none" text-anchor="none" style="mix-blend-mode: normal"><g transform="scale(5.12,5.12)"><path d="M3,7c-1.64453,0 -3,1.35547 -3,3v30c0,1.64453 1.35547,3 3,3h44c1.64453,0 3,-1.35547 3,-3v-30c0,-1.64453 -1.35547,-3 -3,-3zM3,9h44c0.56641,0 1,0.43359 1,1v30c0,0.56641 -0.43359,1 -1,1h-8.71875c-1.67969,-1.12891 -3.58984,-1.75781 -5.15625,-2.40625c-1.5625,-0.64453 -2.58984,-1.32031 -2.96875,-2.09375c1.37109,-0.19922 2.71094,-0.42578 3.65625,-0.78125c0.60156,-0.22656 1.10938,-0.47656 1.53125,-0.8125c0.42188,-0.33594 0.84375,-0.82422 0.84375,-1.5c0,-0.28906 -0.125,-0.5625 -0.34375,-0.75c-0.0625,-0.05469 -0.25391,-0.39453 -0.375,-1c-0.12109,-0.60547 -0.16016,-1.42187 -0.1875,-2.375c-0.05078,-1.90625 0.00391,-4.30469 -0.125,-6.65625c-0.12891,-2.35156 -0.44531,-4.67578 -1.46875,-6.53125c-0.98437,-1.78516 -2.81641,-3.02734 -5.3125,-3.03125c-0.80469,-0.54297 -1.88672,-0.96875 -3.34375,-0.96875c-0.01953,0 -0.04297,0 -0.0625,0c-3.40234,0.25781 -5.78125,1.65234 -7.25,3.625c-1.46875,1.97266 -2.0625,4.42969 -2.34375,6.84375c-0.28125,2.41406 -0.23437,4.80859 -0.3125,6.71875c-0.03906,0.95703 -0.12109,1.79688 -0.25,2.40625c-0.12891,0.60938 -0.30469,0.94141 -0.40625,1.03125c-0.21875,0.1875 -0.34375,0.46094 -0.34375,0.75c0,0.64063 0.33984,1.22266 0.78125,1.59375c0.44141,0.37109 0.96484,0.61719 1.5625,0.8125c0.91797,0.30078 2.1875,0.46094 3.46875,0.625c-0.37891,0.77344 -1.37109,1.44922 -2.9375,2.09375c-1.57422,0.64844 -3.53125,1.27734 -5.21875,2.40625h-8.71875c-0.56641,0 -1,-0.43359 -1,-1v-30c0,-0.56641 0.43359,-1 1,-1zM25.09375,14.09375c0.01172,0 0.01953,0 0.03125,0c1.21484,0.02344 2.01172,0.41406 2.375,0.71875c0.19531,0.15625 0.4375,0.23438 0.6875,0.21875c2.04297,-0.07812 2.99609,0.66797 3.75,2.03125c0.75391,1.36328 1.12891,3.42578 1.25,5.65625c0.12109,2.23047 0.03906,4.61719 0.09375,6.625c0.02734,1.00391 0.05859,1.91406 0.21875,2.71875c0.09766,0.49219 0.40234,0.86719 0.625,1.28125c-0.16406,0.12891 -0.51953,0.32031 -1,0.5c-0.95703,0.35938 -2.44531,0.69531 -4.1875,0.875c-0.51562,0.06641 -0.89453,0.51172 -0.875,1.03125c0.01172,0.40234 0.00391,0.76953 0.03125,1.0625c0.01172,0.08594 0.03125,0.16797 0.0625,0.25c0.66797,1.80078 2.43359,2.64844 4.1875,3.375c0.41016,0.17188 0.76953,0.39453 1.1875,0.5625h-17.03125c0.42188,-0.16797 0.77344,-0.39062 1.1875,-0.5625c1.75781,-0.72656 3.51953,-1.57422 4.1875,-3.375c0.03125,-0.08203 0.05078,-0.16406 0.0625,-0.25c0.04688,-0.50781 0.08203,-0.82812 0.09375,-1.09375c0.01953,-0.53125 -0.37891,-0.98047 -0.90625,-1.03125c-1.72656,-0.1875 -3.18359,-0.41797 -4.09375,-0.71875c-0.45703,-0.14844 -0.77734,-0.32812 -0.90625,-0.4375c-0.06641,-0.05469 -0.02734,-0.02734 -0.03125,-0.03125c0.26953,-0.44531 0.57422,-0.87109 0.6875,-1.40625c0.17188,-0.8125 0.24219,-1.71875 0.28125,-2.71875c0.08203,-2 0.05078,-4.35547 0.3125,-6.59375c0.26172,-2.23828 0.82813,-4.33984 1.96875,-5.875c1.13672,-1.52734 2.82031,-2.58203 5.75,-2.8125z"></path></g></g></g></svg>